# xmcd
#
# Track frame offsets: 
#        150
#        26660
#        50577
#        84120
#        119540
#        148062
#        176437
#        200302
#        214572
#
# Disc length: 3076 seconds
#
# Revision: 2
# Processed by: cddbd v1.5.2PL0 Copyright (c) Steve Scherf et al.
# Submitted via: ExactAudioCopy v1.3
#
DISCID=770c0209
DTITLE=Crown Heights Affair - Sure Shot
DYEAR=1980
DGENRE=Funk
TTITLE0=You Gave Me Love
TTITLE1=I Don't Want To Change You
TTITLE2=Sure Shot
TTITLE3=You've Been Gone
TTITLE4=I See The Light
TTITLE5=Use Your Body And Soul
TTITLE6=Tell Me You Love Me
TTITLE7=You Gave Me Love (Radio Version)
TTITLE8=Sure Shot (Radio Version)
EXTD=
EXTT0=
EXTT1=
EXTT2=
EXTT3=
EXTT4=
EXTT5=
EXTT6=
EXTT7=
EXTT8=
PLAYORDER=
